<svg width="98" height="13" fill="none" xmlns="http://www.w3.org/2000/svg"><path fill-rule="evenodd" clip-rule="evenodd" d="M0 0h4.514v10.75c0 .973 1.057 1.072 1.553 1.072h5.179v.85h-9.71V.843H0V0zm37.924 0H36.91l-4.545 7.448L27.821 0h-4.356v.851h1.494l5.032 8.25v3.572h5.079v-.852h-1.007c-.519 0-1.148-.272-1.148-.934l.008-2.645 5-8.242zM49.69.008v.85h1.567v11.815h.916V3.168l5.907 9.488 6.147-9.834v9.843h4.742v-.85c-.354 0-1.752 0-1.752-.982V0l-2.283.008-5.633 9.035L53.62 0h-3.93v.008zm33.48 7.249l3.425-5.416 3.409 5.416H83.17zm12.388 3.294L88.918 0h-4.331v.85h1.514l-7.425 11.823h1.07l2.89-4.566h7.902l2.874 4.566h4.543v-.85c-.988 0-1.903-.488-2.397-1.272z" fill="#000"/></svg>